<svg width="80" height="32" viewBox="0 0 80 32" fill="none" xmlns="http://www.w3.org/2000/svg">
<rect x="12" width="31.999" height="3.99987" fill="#F3322C"/>
<rect x="48" width="31.999" height="3.99987" fill="#F3322C"/>
<rect x="12" y="8" width="3.99987" height="3.99987" fill="#F3322C"/>
<rect x="12" y="3.99609" width="3.99987" height="3.99987" fill="#F3322C"/>
<rect x="48" y="8" width="3.99987" height="3.99987" fill="#F3322C"/>
<rect x="48" y="3.99609" width="3.99987" height="3.99987" fill="#F3322C"/>
<rect y="11.9961" width="15.9995" height="3.99987" fill="#F3322C"/>
<rect y="16" width="3.99987" height="3.99987" fill="#F3322C"/>
<rect y="20" width="3.99987" height="3.99987" fill="#F3322C"/>
<rect x="12" y="16" width="3.99987" height="3.99987" fill="#F3322C"/>
<rect x="48" y="16" width="3.99987" height="3.99987" fill="#F3322C"/>
<rect x="12" y="20" width="3.99987" height="3.99987" fill="#F3322C"/>
<rect x="48" y="20" width="3.99987" height="3.99987" fill="#F3322C"/>
<rect x="76" y="8" width="3.99987" height="3.99987" fill="#F3322C"/>
<rect x="76" y="11.9961" width="3.99987" height="3.99987" fill="#F3322C"/>
<rect x="76" y="16" width="3.99987" height="3.99987" fill="#F3322C"/>
<rect x="76" y="20" width="3.99987" height="3.99987" fill="#F3322C"/>
<rect x="48" y="23.9961" width="3.99987" height="3.99987" fill="#F3322C"/>
<rect x="76" y="23.9961" width="3.99987" height="3.99987" fill="#F3322C"/>
<rect x="40" y="8" width="3.99987" height="3.99987" fill="#F3322C"/>
<rect x="76" y="3.99609" width="3.99987" height="3.99987" fill="#F3322C"/>
<rect x="40" y="3.99609" width="3.99987" height="3.99987" fill="#F3322C"/>
<rect x="40" y="11.9961" width="11.9996" height="3.99987" fill="#F3322C"/>
<rect x="40" y="16" width="3.99987" height="3.99987" fill="#F3322C"/>
<rect x="40" y="20" width="3.99987" height="3.99987" fill="#F3322C"/>
<rect x="12" y="23.9961" width="3.99987" height="3.99987" fill="#F3322C"/>
<rect x="40" y="23.9961" width="3.99987" height="3.99987" fill="#F3322C"/>
<rect x="48" y="28" width="31.999" height="3.99987" fill="#F3322C"/>
<rect x="12" y="28" width="31.999" height="3.99987" fill="#F3322C"/>
<rect x="16.0078" y="8" width="7.99974" height="3.99987" fill="white"/>
<rect x="24" y="8" width="15.9995" height="3.99987" fill="black"/>
<rect x="16.0078" y="3.99609" width="7.99974" height="3.99987" fill="white"/>
<rect x="24" y="3.99609" width="15.9995" height="3.99987" fill="black"/>
<rect x="24" y="11.9961" width="15.9995" height="3.99987" fill="black"/>
<rect x="52" y="8" width="7.99974" height="3.99987" fill="white"/>
<rect x="60" y="8" width="15.9995" height="3.99987" fill="black"/>
<rect x="52" y="3.99609" width="7.99974" height="3.99987" fill="white"/>
<rect x="60" y="3.99609" width="15.9995" height="3.99987" fill="black"/>
<rect x="16.0078" y="11.9961" width="7.99974" height="3.99987" fill="white"/>
<rect x="52" y="11.9961" width="7.99974" height="3.99987" fill="white"/>
<rect x="60" y="11.9961" width="15.9995" height="3.99987" fill="black"/>
<rect x="16.0078" y="16" width="7.99974" height="3.99987" fill="white"/>
<rect x="24" y="16" width="15.9995" height="3.99987" fill="black"/>
<rect x="52" y="16" width="7.99974" height="3.99987" fill="white"/>
<rect x="60" y="16" width="15.9995" height="3.99987" fill="black"/>
<rect x="16.0078" y="20" width="7.99974" height="3.99987" fill="white"/>
<rect x="24" y="20" width="15.9995" height="3.99987" fill="black"/>
<rect x="16.0078" y="23.9961" width="7.99974" height="3.99987" fill="white"/>
<rect x="24" y="23.9961" width="15.9995" height="3.99987" fill="black"/>
<rect x="52" y="20" width="7.99974" height="3.99987" fill="white"/>
<rect x="60" y="20" width="15.9995" height="3.99987" fill="black"/>
<rect x="52" y="23.9961" width="7.99974" height="3.99987" fill="white"/>
<rect x="60" y="23.9961" width="15.9995" height="3.99987" fill="black"/>
</svg>
